<svg  width="1492" height="600" xmlns="http://www.w3.org/2000/svg" ><path  d="
 M 673 20 C 719 19, 766, 20, 812, 19
 C 844 51, 875, 81, 905, 111
 C 906 174, 905, 235, 905, 295
 C 875 327, 845, 357, 815, 386
 C 845 449, 876, 509, 906, 569
 C 873 571, 843, 570, 812, 570
 C 780 510, 751, 450, 721, 390
 C 704 388, 689, 388, 675, 389
 C 674 356, 673, 326, 673, 295
 C 704 293, 735, 294, 765, 294
 C 781 278, 795, 264, 810, 250
 C 810 218, 811, 189, 811, 160
 C 796 142, 780, 131, 767, 115
 C 734 114, 705, 115, 675, 115
 C 673 82, 674, 53, 674, 23" fill="rgb(28,28,138)" />
<path  d="
 M 675 21 C 674 51, 675, 82, 674, 112
 C 705 112, 735, 113, 764, 112
 C 780 127, 795, 139, 809, 155
 C 812 187, 811, 219, 812, 249
 C 792 269, 789, 274, 767, 295
 C 736 294, 706, 295, 676, 294
 C 675 326, 674, 356, 674, 386
 C 691 388, 715, 383, 724, 390
 C 752 448, 778, 501, 811, 568
 C 840 569, 872, 568, 902, 569
 C 875 514, 842, 446, 814, 391
 C 847 352, 869, 330, 902, 298
 C 905 237, 904, 175, 905, 114
 C 873 83, 844, 53, 813, 23
 C 768 22, 723, 22, 678, 22" fill="rgb(28,28,142)" />
<path  d="
 M 1129 20 C 1161 19, 1193, 20, 1224, 19
 C 1226 52, 1225, 82, 1225, 112
 C 1209 114, 1194, 114, 1180, 115
 C 1164 129, 1149, 143, 1135, 157
 C 1134 250, 1135, 340, 1134, 430
 C 1151 446, 1162, 461, 1178, 475
 C 1194 476, 1209, 476, 1225, 477
 C 1226 509, 1225, 539, 1225, 569
 C 1193 570, 1162, 570, 1131, 570
 C 1100 540, 1070, 510, 1040, 481
 C 1040 356, 1040, 234, 1040, 112
 C 1070 81, 1099, 51, 1128, 22" fill="rgb(28,28,138)" />
<path  d="
 M 1131 22 C 1100 54, 1072, 80, 1043, 110
 C 1041 232, 1042, 355, 1041, 477
 C 1074 511, 1105, 543, 1130, 568
 C 1162 569, 1192, 568, 1222, 568
 C 1223 538, 1224, 509, 1224, 480
 C 1207 478, 1192, 478, 1178, 479
 C 1161 461, 1148, 447, 1134, 433
 C 1133 341, 1132, 249, 1132, 158
 C 1146 144, 1162, 129, 1177, 113
 C 1193 112, 1208, 112, 1224, 113
 C 1223 82, 1224, 53, 1224, 23
 C 1193 22, 1163, 21, 1132, 21" fill="rgb(28,28,141)" />
<path  d="
 M 171 20 C 217 19, 263, 20, 309, 19
 C 342 51, 372, 81, 402, 111
 C 403 174, 402, 235, 402, 295
 C 371 328, 341, 358, 311, 387
 C 264 388, 218, 389, 173, 389
 C 172 356, 171, 326, 171, 295
 C 202 293, 233, 294, 263, 294
 C 279 278, 293, 264, 307, 249
 C 308 218, 309, 189, 309, 160
 C 293 144, 279, 130, 265, 116
 C 233 115, 203, 114, 172, 114
 C 171 82, 172, 53, 172, 23" fill="rgb(28,28,138)" />
<path  d="
 M 34 20 C 65 19, 97, 20, 128, 19
 C 129 204, 130, 387, 129, 569
 C 97 570, 66, 570, 35, 570
 C 35 387, 35, 204, 35, 23" fill="rgb(28,28,138)" />
<path  d="
 M 174 20 C 173 51, 173, 82, 173, 112
 C 204 112, 235, 113, 265, 113
 C 278 125, 294, 143, 309, 156
 C 309 188, 310, 219, 310, 249
 C 293 266, 280, 280, 265, 294
 C 234 294, 204, 295, 174, 294
 C 173 325, 174, 356, 174, 386
 C 220 386, 265, 387, 311, 387
 C 342 353, 370, 327, 401, 295
 C 401 234, 401, 173, 401, 113
 C 364 77, 342, 52, 311, 23
 C 264 22, 220, 22, 176, 22" fill="rgb(28,28,142)" />
<path  d="
 M 537 20 C 568 19, 599, 20, 630, 19
 C 631 204, 632, 387, 631, 569
 C 599 571, 569, 570, 538, 570
 C 538 387, 538, 204, 538, 23" fill="rgb(28,28,138)" />
<path  d="
 M 539 20 C 538 203, 539, 386, 538, 568
 C 569 568, 600, 569, 630, 569
 C 631 386, 630, 204, 630, 21
 C 600 21, 570, 22, 540, 21" fill="rgb(29,29,141)" />
<path  d="
 M 36 22 C 37 204, 36, 386, 36, 568
 C 67 569, 98, 568, 128, 569
 C 126 387, 127, 205, 126, 23
 C 97 21, 67, 21, 38, 21" fill="rgb(29,29,141)" />
<path  d="
 M 1267 294 C 1329 293, 1391, 294, 1452, 293
 C 1454 356, 1453, 417, 1453, 477
 C 1422 509, 1392, 540, 1362, 570
 C 1329 571, 1299, 570, 1268, 570
 C 1267 538, 1268, 509, 1268, 479
 C 1283 476, 1298, 477, 1313, 477
 C 1329 461, 1342, 446, 1357, 432
 C 1358 417, 1359, 403, 1358, 389
 C 1328 388, 1298, 389, 1268, 388
 C 1267 356, 1268, 327, 1268, 297" fill="rgb(28,28,138)" />
<path  d="
 M 1269 294 C 1270 324, 1269, 355, 1270, 385
 C 1300 386, 1330, 387, 1359, 386
 C 1357 405, 1368, 430, 1352, 439
 C 1334 457, 1328, 465, 1315, 477
 C 1298 478, 1284, 478, 1270, 478
 C 1269 509, 1270, 538, 1270, 568
 C 1300 568, 1330, 569, 1359, 568
 C 1385 544, 1427, 502, 1451, 478
 C 1451 417, 1451, 356, 1451, 296
 C 1390 294, 1330, 294, 1270, 294" fill="rgb(29,29,142)" />
<path  d="
 M 1267 20 C 1298 19, 1329, 20, 1359, 19
 C 1392 51, 1422, 81, 1453, 112
 C 1453 143, 1454, 174, 1454, 204
 C 1422 205, 1391, 205, 1360, 205
 C 1358 189, 1360, 171, 1358, 156
 C 1342 141, 1329, 129, 1315, 115
 C 1298 114, 1283, 114, 1269, 115
 C 1267 82, 1268, 53, 1268, 23" fill="rgb(28,28,138)" />
<path  d="
 M 1269 20 C 1270 51, 1269, 82, 1270, 112
 C 1285 114, 1303, 111, 1317, 114
 C 1331 131, 1346, 142, 1358, 156
 C 1360 173, 1360, 188, 1361, 204
 C 1391 204, 1421, 205, 1450, 204
 C 1451 173, 1452, 144, 1452, 114
 C 1424 85, 1397, 58, 1363, 25
 C 1334 20, 1301, 23, 1271, 21" fill="rgb(29,29,141)" /></svg>